<?xml version="1.0" encoding="utf-8"?>
<svg viewBox="0 0 519.12 499.363" xmlns="http://www.w3.org/2000/svg">
  <path d="M 147.593 201.682 C 129.893 201.682 115.593 215.982 115.593 233.682 C 115.593 251.382 129.893 265.682 147.593 265.682 C 165.293 265.682 179.593 251.382 179.593 233.682 C 179.593 215.982 165.293 201.682 147.593 201.682 Z M 259.593 201.682 C 241.893 201.682 227.593 215.982 227.593 233.682 C 227.593 251.382 241.893 265.682 259.593 265.682 C 277.293 265.682 291.593 251.382 291.593 233.682 C 291.593 215.982 277.293 201.682 259.593 201.682 Z M 371.593 201.682 C 353.893 201.682 339.593 215.982 339.593 233.682 C 339.593 251.382 353.893 265.682 371.593 265.682 C 389.293 265.682 403.593 251.382 403.593 233.682 C 403.593 215.982 389.293 201.682 371.593 201.682 Z M 259.593 25.682 C 118.193 25.682 3.593 118.782 3.593 233.682 C 3.593 281.282 23.493 324.882 56.493 359.982 C 41.593 399.382 10.593 432.782 10.093 433.182 C 3.493 440.182 1.693 450.382 5.493 459.182 C 9.293 467.982 17.993 473.682 27.593 473.682 C 89.093 473.682 137.593 447.982 166.693 427.382 C 195.593 436.482 226.793 441.682 259.593 441.682 C 400.993 441.682 515.593 348.582 515.593 233.682 C 515.593 118.782 400.993 25.682 259.593 25.682 Z M 259.593 393.682 C 232.893 393.682 206.493 389.582 181.193 381.582 L 158.493 374.382 L 138.993 388.182 C 124.693 398.282 105.093 409.582 81.493 417.182 C 88.793 405.082 95.893 391.482 101.393 376.982 L 111.993 348.882 L 91.393 327.082 C 73.293 307.782 51.593 275.882 51.593 233.682 C 51.593 145.482 144.893 73.682 259.593 73.682 C 374.293 73.682 467.593 145.482 467.593 233.682 C 467.593 321.882 374.293 393.682 259.593 393.682 Z" style="stroke: rgb(10, 102, 194); paint-order: stroke; fill: rgb(10, 102, 194);"/>
</svg>